<svg fill="currentColor" viewBox="0 0 24 24" xmlns="http://www.w3.org/2000/svg"><path d="m24 11.986h-.027l-4.318-4.318 4.303-4.414v-1.793l-.649-.648h-8.198l-.66.605v1.045l-2.436-2.436v-.027l-.015.014-.014-.014v.027l-1.29 1.291-.538-.539h-8.123l-.638.692v1.885l.616.616h.72v5.31l-2.706 2.705h-.027l.014.013-.014.014h.027l2.706 2.706v6.467l.907.523h2.322l1.857-1.904 4.166 4.166v.028l.015-.014.014.014v-.028l2.51-2.509h.485c.111 0 .211-.07.25-.179l.146-.426a.262.262 0 0 0 -.037-.239l1.462-1.462-.612 1.962a.265.265 0 0 0 .255.344h1.824a.266.266 0 0 0 .243-.163l.165-.394a.27.27 0 0 0 -.247-.365h-.075l.84-2.644h1.232l-1.016 3.221a.266.266 0 0 0 .255.344h2.002c.11 0 .207-.066.248-.17l.164-.428a.266.266 0 0 0 -.249-.358h-.145l1.131-3.673a.263.263 0 0 0 -.039-.24l-.375-.504-.003-.005a.267.267 0 0 0 -.209-.102h-1.436a.266.266 0 0 0 -.19.081l-.4.439h-.624l-.042-.046 4.445-4.445h.028l-.014-.011zm-14.162 9.153 1.579-4.509h-.501l.297-.304h1.659l-1.563 4.555h.623l-.079.258zm3.695-7.516.15.151-.269.922-.225.226h-.969l-.181-.181.311-.871.288-.247zm-7.943 7.206h-1.713l-.262-.15v-17.588h-1.236l-.1-.1v-1.176l.143-.154h7.371l.213.214v1.108l-.142.173h-1.079v8.688l8.807-8.688h-2.086l-.175-.188v-1.163l.121-.111h7.49l.132.133v1.07l-10.095 10.353h-.373c-.015-.001-.028 0-.042.001l-.02.003a.259.259 0 0 0 -.119.06l-.343.295-.004.003a.273.273 0 0 0 -.073.111l-.296.83zm14.768-3.952.474-.519h1.334l.309.415-1.265 4.107h.493l-.08.209h-1.783l1.124-3.564h-2.015l-1.077 3.391h.424l-.073.174h-1.605l1.107-3.548h-2.096l-1.062 3.339h.436l-.072.209h-1.661l1.514-4.46h-.586l.091-.271h1.65l.519.537h.906l.491-.554h1.061l.489.535z"/></svg>